<svg width="1180" height="610" viewBox="0 0 1180 610" xmlns="http://www.w3.org/2000/svg" xmlns:xlink="http://www.w3.org/1999/xlink">
  <defs>
    <!-- background -->
    <radialGradient id="bgGlowBlue" cx="15%" cy="10%" r="55%">
      <stop offset="0%" stop-color="#2563EB" stop-opacity="0.10"/>
      <stop offset="100%" stop-color="#2563EB" stop-opacity="0"/>
    </radialGradient>
    <radialGradient id="bgGlowPurple" cx="85%" cy="20%" r="50%">
      <stop offset="0%" stop-color="#2563EB" stop-opacity="0.12"/>
      <stop offset="100%" stop-color="#2563EB" stop-opacity="0"/>
    </radialGradient>
    <radialGradient id="bgGlowEmerald" cx="75%" cy="90%" r="45%">
      <stop offset="0%" stop-color="#10B981" stop-opacity="0.08"/>
      <stop offset="100%" stop-color="#10B981" stop-opacity="0"/>
    </radialGradient>

    <linearGradient id="panelGrad" x1="0%" y1="0%" x2="100%" y2="100%">
      <stop offset="0%" stop-color="#F8FAFC" stop-opacity="0.92"/>
      <stop offset="100%" stop-color="#F1F5F9" stop-opacity="0.92"/>
    </linearGradient>

    <!-- shimmering border -->
    <linearGradient id="borderShimmer" x1="0%" y1="0%" x2="100%" y2="0%">
      <stop offset="0%" stop-color="#2563EB" stop-opacity="0"/>
      <stop offset="45%" stop-color="#2563EB" stop-opacity="0.9"/>
      <stop offset="55%" stop-color="#06B6D4" stop-opacity="0.9"/>
      <stop offset="100%" stop-color="#06B6D4" stop-opacity="0"/>
      <animateTransform attributeName="gradientTransform" type="translate" values="-1200 0;1200 0" dur="6s" repeatCount="indefinite"/>
    </linearGradient>

    <!-- ascii flowing gradient -->
    <linearGradient id="asciiGrad" x1="0%" y1="0%" x2="100%" y2="100%">
      <stop offset="0%" stop-color="#2563EB"/>
      <stop offset="50%" stop-color="#06B6D4"/>
      <stop offset="100%" stop-color="#10B981"/>
      <animateTransform attributeName="gradientTransform" type="translate" values="0 0;-260 0;0 0" dur="7s" repeatCount="indefinite"/>
    </linearGradient>

    <linearGradient id="accentGrad" x1="0%" y1="0%" x2="100%" y2="0%">
      <stop offset="0%" stop-color="#2563EB"/>
      <stop offset="50%" stop-color="#06B6D4"/>
      <stop offset="100%" stop-color="#10B981"/>
    </linearGradient>

    <linearGradient id="pillBorder" x1="0%" y1="0%" x2="100%" y2="100%">
      <stop offset="0%" stop-color="#2563EB" stop-opacity="0.9"/>
      <stop offset="100%" stop-color="#06B6D4" stop-opacity="0.9"/>
    </linearGradient>

    <linearGradient id="scanGrad" x1="0%" y1="0%" x2="0%" y2="100%">
      <stop offset="0%" stop-color="#06B6D4" stop-opacity="0"/>
      <stop offset="50%" stop-color="#06B6D4" stop-opacity="0.10"/>
      <stop offset="100%" stop-color="#06B6D4" stop-opacity="0"/>
    </linearGradient>

    <filter id="softGlow" x="-50%" y="-50%" width="200%" height="200%">
      <feGaussianBlur stdDeviation="3.2" result="blur"/>
      <feMerge>
        <feMergeNode in="blur"/>
        <feMergeNode in="SourceGraphic"/>
      </feMerge>
    </filter>

    <filter id="pulseGlow" x="-60%" y="-60%" width="220%" height="220%">
      <feGaussianBlur stdDeviation="2">
        <animate attributeName="stdDeviation" values="1.5;4;1.5" dur="2.6s" repeatCount="indefinite"/>
      </feGaussianBlur>
    </filter>

    <clipPath id="outerClip">
      <rect x="4" y="4" width="1172" height="602" rx="26"/>
    </clipPath>
    <clipPath id="leftClip">
      <rect x="4" y="4" width="448" height="602" rx="26"/>
    </clipPath>
  </defs>

  <!-- BASE BACKGROUND -->
  <rect width="1180" height="610" rx="28" fill="#FFFFFF"/>
  <g clip-path="url(#outerClip)">
    <rect width="1180" height="610" fill="#FFFFFF"/>
    <rect width="1180" height="610" fill="url(#bgGlowBlue)"/>
    <rect width="1180" height="610" fill="url(#bgGlowPurple)"/>
    <rect width="1180" height="610" fill="url(#bgGlowEmerald)"/>

    <!-- floating particles -->
    <g fill="#06B6D4">
      <circle cx="120" cy="500" r="1.6" opacity="0.5">
        <animateMotion path="M0,0 C 20,-40 -20,-80 0,-140" dur="9s" repeatCount="indefinite"/>
        <animate attributeName="opacity" values="0.1;0.6;0.1" dur="3s" repeatCount="indefinite"/>
      </circle>
      <circle cx="360" cy="120" r="1.3" opacity="0.4" fill="#2563EB">
        <animateMotion path="M0,0 C -30,30 20,70 -10,120" dur="11s" repeatCount="indefinite"/>
        <animate attributeName="opacity" values="0.1;0.5;0.1" dur="4s" repeatCount="indefinite"/>
      </circle>
      <circle cx="900" cy="80" r="1.5" opacity="0.4" fill="#10B981">
        <animateMotion path="M0,0 C 30,40 -10,90 20,150" dur="10s" repeatCount="indefinite"/>
        <animate attributeName="opacity" values="0.1;0.55;0.1" dur="3.4s" repeatCount="indefinite"/>
      </circle>
      <circle cx="1050" cy="480" r="1.4" opacity="0.4" fill="#06B6D4">
        <animateMotion path="M0,0 C -20,-30 10,-70 -20,-110" dur="8.5s" repeatCount="indefinite"/>
        <animate attributeName="opacity" values="0.1;0.5;0.1" dur="3.2s" repeatCount="indefinite"/>
      </circle>
      <circle cx="700" cy="550" r="1.2" opacity="0.35" fill="#2563EB">
        <animateMotion path="M0,0 C 10,-30 -20,-60 5,-100" dur="12s" repeatCount="indefinite"/>
        <animate attributeName="opacity" values="0.08;0.45;0.08" dur="4.2s" repeatCount="indefinite"/>
      </circle>
    </g>

    <!-- divider -->
    <line x1="452" y1="36" x2="452" y2="574" stroke="#2563EB" stroke-opacity="0.18" stroke-width="1"/>

    <!-- ============ LEFT: ASCII PORTRAIT ============ -->
    <g clip-path="url(#leftClip)">
      <!-- scanline sweep -->
      <rect x="4" y="0" width="448" height="46" fill="url(#scanGrad)">
        <animate attributeName="y" values="-46;610" dur="5s" repeatCount="indefinite"/>
      </rect>

      <g font-family="'Courier New', monospace" font-size="13" text-anchor="middle" fill="url(#asciiGrad)" filter="url(#softGlow)">
        <animateTransform attributeName="transform" type="translate" values="0 0;0 -6;0 0" dur="5s" repeatCount="indefinite" additive="sum"/>

        <text x="228" y="150" opacity="0"> .-------------------. <animate attributeName="opacity" begin="0.1s" dur="0.6s" to="1" fill="freeze"/></text>
        <text x="228" y="166" opacity="0">/  .---------------.  \<animate attributeName="opacity" begin="0.35s" dur="0.6s" to="1" fill="freeze"/></text>
        <text x="228" y="182" opacity="0">|  |   ▄▄     ▄▄    |  |<animate attributeName="opacity" begin="0.6s" dur="0.6s" to="1" fill="freeze"/></text>
        <text x="228" y="198" opacity="0">|  |   ██     ██    |  |<animate attributeName="opacity" begin="0.85s" dur="0.6s" to="1" fill="freeze"/></text>
        <text x="228" y="214" opacity="0">|  |                |  |<animate attributeName="opacity" begin="1.1s" dur="0.6s" to="1" fill="freeze"/></text>
        <text x="228" y="230" opacity="0">|  |      ____      |  |<animate attributeName="opacity" begin="1.35s" dur="0.6s" to="1" fill="freeze"/></text>
        <text x="228" y="246" opacity="0">|  |     /    \     |  |<animate attributeName="opacity" begin="1.6s" dur="0.6s" to="1" fill="freeze"/></text>
        <text x="228" y="262" opacity="0">|  '---------------'  |<animate attributeName="opacity" begin="1.85s" dur="0.6s" to="1" fill="freeze"/></text>
        <text x="228" y="278" opacity="0"> \                   / <animate attributeName="opacity" begin="2.1s" dur="0.6s" to="1" fill="freeze"/></text>
        <text x="228" y="294" opacity="0">  '-------------------'<animate attributeName="opacity" begin="2.35s" dur="0.6s" to="1" fill="freeze"/></text>
        <text x="228" y="330" opacity="0" font-size="14">&gt; whoami<animate attributeName="opacity" begin="2.7s" dur="0.6s" to="1" fill="freeze"/></text>
        <text x="228" y="350" opacity="0" font-size="14">yoner_isaza<animate attributeName="opacity" begin="2.95s" dur="0.6s" to="1" fill="freeze"/></text>
        <text x="228" y="370" opacity="0" font-size="13">systems.engineer()<animate attributeName="opacity" begin="3.2s" dur="0.6s" to="1" fill="freeze"/></text>
      </g>

      <!-- blinking cursor -->
      <rect x="308" y="360" width="9" height="14" fill="#06B6D4" opacity="0">
        <animate attributeName="opacity" begin="3.6s" values="0;1;1;0;0" keyTimes="0;0.02;0.5;0.52;1" dur="1s" repeatCount="indefinite"/>
      </rect>

      <text x="228" y="440" text-anchor="middle" font-family="'Segoe UI', sans-serif" font-size="12" fill="#475569" opacity="0" letter-spacing="2">
        SYSTEMS ENGINEER · COLOMBIA
        <animate attributeName="opacity" begin="4s" dur="1s" to="1" fill="freeze"/>
      </text>
    </g>

    <!-- ============ RIGHT: TERMINAL ============ -->
    <g font-family="'Segoe UI', system-ui, sans-serif">
      <!-- terminal chrome -->
      <rect x="480" y="36" width="666" height="34" rx="10" fill="#F1F5F9" opacity="0.7"/>
      <circle cx="500" cy="53" r="5" fill="#EF4444" opacity="0.85"/>
      <circle cx="518" cy="53" r="5" fill="#F59E0B" opacity="0.85"/>
      <circle cx="536" cy="53" r="5" fill="#10B981" opacity="0.85"/>
      <text x="813" y="58" text-anchor="middle" font-size="12" fill="#475569" font-family="'Courier New', monospace">yoner@github :: ~ portfolio</text>

      <!-- greeting -->
      <text x="480" y="118" font-size="20" fill="#0F172A" opacity="0">Hi 👋
        <animate attributeName="opacity" begin="0.3s" dur="0.5s" to="1" fill="freeze"/>
      </text>

      <g clip-path="url(#nameClip)">
        <text x="480" y="156" font-size="32" font-weight="700" fill="url(#accentGrad)">I'm Yoner Isaza</text>
      </g>
      <clipPath id="nameClip">
        <rect x="475" y="128" width="0" height="40">
          <animate attributeName="width" begin="0.9s" dur="1s" to="330" fill="freeze"/>
        </rect>
      </clipPath>

      <!-- rotating roles -->
      <g font-family="'Courier New', monospace" font-size="18" fill="#06B6D4">
        <text x="480" y="196" opacity="0">&gt;<tspan dx="8" fill="#0F172A">Frontend Engineer<animate attributeName="opacity" values="0;1;1;0" keyTimes="0;0.02;0.18;0.2" dur="12.5s" begin="0s" repeatCount="indefinite" fill="freeze"/></tspan></text>
        <text x="480" y="196" fill="#0F172A" opacity="0"><tspan dx="20">Full Stack Developer<animate attributeName="opacity" values="0;0;1;1;0" keyTimes="0;0.2;0.22;0.38;0.4" dur="12.5s" begin="0s" repeatCount="indefinite"/></tspan></text>
        <text x="480" y="196" fill="#0F172A" opacity="0"><tspan dx="20">Open Source Contributor<animate attributeName="opacity" values="0;0;1;1;0" keyTimes="0;0.4;0.42;0.58;0.6" dur="12.5s" begin="0s" repeatCount="indefinite"/></tspan></text>
        <text x="480" y="196" fill="#0F172A" opacity="0"><tspan dx="20">UI Engineer<animate attributeName="opacity" values="0;0;1;1;0" keyTimes="0;0.6;0.62;0.78;0.8" dur="12.5s" begin="0s" repeatCount="indefinite"/></tspan></text>
        <text x="480" y="196" fill="#0F172A" opacity="0"><tspan dx="20">AI Enthusiast<animate attributeName="opacity" values="0;0;1;1;0" keyTimes="0;0.8;0.82;0.98;1" dur="12.5s" begin="0s" repeatCount="indefinite"/></tspan></text>
        <rect x="474" y="184" width="8" height="16" fill="#06B6D4">
          <animate attributeName="opacity" values="1;1;0;0" keyTimes="0;0.5;0.51;1" dur="1s" repeatCount="indefinite"/>
        </rect>
      </g>

      <!-- info list -->
      <g font-size="14" fill="#0F172A">
        <g opacity="0">
          <animate attributeName="opacity" begin="1.6s" dur="0.5s" to="1" fill="freeze"/>
          <rect x="480" y="228" width="6" height="6" fill="#2563EB" transform="rotate(45 483 231)"/>
          <text x="496" y="235"><tspan fill="#475569">Location </tspan>Colombia</text>
        </g>
        <g opacity="0">
          <animate attributeName="opacity" begin="1.9s" dur="0.5s" to="1" fill="freeze"/>
          <rect x="480" y="252" width="6" height="6" fill="#06B6D4" transform="rotate(45 483 255)"/>
          <text x="496" y="259"><tspan fill="#475569">Education </tspan>Systems Engineering</text>
        </g>
        <g opacity="0">
          <animate attributeName="opacity" begin="2.2s" dur="0.5s" to="1" fill="freeze"/>
          <rect x="480" y="276" width="6" height="6" fill="#10B981" transform="rotate(45 483 279)"/>
          <text x="496" y="283"><tspan fill="#475569">Focus </tspan>AI / ML · Full-Stack Systems</text>
        </g>
        <g opacity="0">
          <animate attributeName="opacity" begin="2.5s" dur="0.5s" to="1" fill="freeze"/>
          <rect x="480" y="300" width="6" height="6" fill="#2563EB" transform="rotate(45 483 303)"/>
          <text x="496" y="307"><tspan fill="#475569">Portfolio </tspan>github.com/y0ner</text>
        </g>
        <g opacity="0">
          <animate attributeName="opacity" begin="2.8s" dur="0.5s" to="1" fill="freeze"/>
          <rect x="480" y="324" width="6" height="6" fill="#06B6D4" transform="rotate(45 483 327)"/>
          <text x="496" y="331"><tspan fill="#475569">Email </tspan>yonerisaza0@gmail.com</text>
        </g>
      </g>

      <!-- skills label -->
      <text x="480" y="368" font-size="12" letter-spacing="2" fill="#475569" opacity="0">
        SKILLS
        <animate attributeName="opacity" begin="3.1s" dur="0.5s" to="1" fill="freeze"/>
      </text>

      <!-- skill icons (2 rows × 5 cols, 48x48 each) -->
      <g>
        <!-- row 1 -->
        <g opacity="0">
          <animate attributeName="opacity" begin="3.3s" dur="0.4s" to="1" fill="freeze"/>
          <svg x="480" y="380" width="48" height="48" viewBox="0 0 256 256">
    
        <g transform="translate(0, 0)">
          <svg xmlns="http://www.w3.org/2000/svg" width="256" height="256" fill="none" viewBox="0 0 256 256"><rect width="256" height="256" fill="#242938" rx="60"/><path fill="#00D8FF" d="M128.001 146.951C138.305 146.951 146.657 138.598 146.657 128.295C146.657 117.992 138.305 109.639 128.001 109.639C117.698 109.639 109.345 117.992 109.345 128.295C109.345 138.598 117.698 146.951 128.001 146.951Z"/><path fill-rule="evenodd" stroke="#00D8FF" stroke-width="8.911" d="M128.002 90.3633C153.05 90.3633 176.319 93.9575 193.864 99.9976C215.003 107.275 228 118.306 228 128.295C228 138.704 214.226 150.423 191.525 157.944C174.363 163.63 151.779 166.598 128.002 166.598C103.624 166.598 80.5389 163.812 63.1834 157.881C41.2255 150.376 28 138.506 28 128.295C28 118.387 40.4096 107.441 61.2515 100.175C78.8617 94.0353 102.705 90.3633 127.998 90.3633H128.002Z" clip-rule="evenodd"/><path fill-rule="evenodd" stroke="#00D8FF" stroke-width="8.911" d="M94.9811 109.438C107.495 87.7402 122.232 69.3783 136.23 57.1971C153.094 42.5206 169.144 36.7728 177.796 41.7623C186.813 46.9623 190.084 64.7496 185.259 88.1712C181.614 105.879 172.9 126.925 161.021 147.523C148.842 168.641 134.897 187.247 121.09 199.315C103.619 214.587 86.7284 220.114 77.8833 215.013C69.3003 210.067 66.0181 193.846 70.1356 172.161C73.6145 153.838 82.3451 131.349 94.977 109.438L94.9811 109.438Z" clip-rule="evenodd"/><path fill-rule="evenodd" stroke="#00D8FF" stroke-width="8.911" d="M95.0123 147.578C82.4633 125.904 73.9194 103.962 70.3531 85.7517C66.0602 63.8109 69.0954 47.0355 77.7401 42.0315C86.7485 36.8163 103.792 42.866 121.674 58.7437C135.194 70.7479 149.077 88.8052 160.99 109.383C173.204 130.481 182.358 151.856 185.919 169.844C190.425 192.608 186.778 210.001 177.941 215.116C169.367 220.08 153.676 214.825 136.945 200.427C122.809 188.263 107.685 169.468 95.0123 147.578Z" clip-rule="evenodd"/></svg>
        </g>
        
  </svg>
        </g>
        <g opacity="0">
          <animate attributeName="opacity" begin="3.4s" dur="0.4s" to="1" fill="freeze"/>
          <svg x="540" y="380" width="48" height="48" viewBox="0 0 256 256">
    
        <g transform="translate(0, 0)">
          <svg xmlns="http://www.w3.org/2000/svg" width="256" height="256" fill="none" viewBox="0 0 256 256"><rect width="256" height="256" fill="#242938" rx="60"/><path fill="#fff" d="M121.451 28.0537C121.021 28.0928 119.652 28.2297 118.42 28.3274C90.0137 30.8885 63.4057 46.216 46.5533 69.7742C37.1691 82.8729 31.1672 97.7312 28.8993 113.469C28.0978 118.963 28 120.586 28 128.034C28 135.483 28.0978 137.106 28.8993 142.599C34.3343 180.155 61.0596 211.71 97.306 223.401C103.797 225.493 110.639 226.92 118.42 227.78C121.451 228.112 134.549 228.112 137.58 227.78C151.011 226.294 162.389 222.971 173.611 217.242C175.331 216.363 175.664 216.128 175.429 215.933C175.273 215.815 167.941 205.981 159.144 194.095L143.152 172.492L123.112 142.834C112.086 126.529 103.015 113.195 102.936 113.195C102.858 113.176 102.78 126.353 102.741 142.443C102.682 170.615 102.663 171.749 102.311 172.413C101.803 173.371 101.412 173.762 100.59 174.193C99.9648 174.505 99.4174 174.564 96.4653 174.564H93.0831L92.1838 173.997C91.5973 173.626 91.1672 173.137 90.8739 172.57L90.4633 171.69L90.5024 132.492L90.5611 93.2737L91.1672 92.5112C91.48 92.1007 92.1447 91.5728 92.6139 91.3186C93.4154 90.9276 93.7283 90.8885 97.1105 90.8885C101.099 90.8885 101.763 91.0449 102.8 92.1789C103.093 92.4917 113.943 108.836 126.925 128.523C139.906 148.21 157.658 175.092 166.377 188.288L182.213 212.277L183.015 211.749C190.111 207.135 197.619 200.566 203.562 193.723C216.211 179.197 224.364 161.485 227.101 142.599C227.902 137.106 228 135.483 228 128.034C228 120.586 227.902 118.963 227.101 113.469C221.666 75.913 194.94 44.3587 158.694 32.6676C152.301 30.5953 145.498 29.1681 137.873 28.3079C135.996 28.1124 123.073 27.8973 121.451 28.0537ZM162.389 88.5425C163.327 89.0117 164.09 89.911 164.364 90.8494C164.52 91.3577 164.559 102.228 164.52 126.724L164.461 161.876L158.264 152.374L152.047 142.873V117.321C152.047 100.801 152.125 91.5141 152.242 91.0645C152.555 89.9697 153.239 89.1095 154.178 88.6011C154.979 88.1906 155.273 88.1515 158.342 88.1515C161.236 88.1515 161.744 88.1906 162.389 88.5425Z"/></svg>
        </g>
        
  </svg>
        </g>
        <g opacity="0">
          <animate attributeName="opacity" begin="3.5s" dur="0.4s" to="1" fill="freeze"/>
          <svg x="600" y="380" width="48" height="48" viewBox="0 0 256 256">
    
        <g transform="translate(0, 0)">
          <svg xmlns="http://www.w3.org/2000/svg" width="256" height="256" fill="none" viewBox="0 0 256 256"><rect width="256" height="256" fill="#242938" rx="60"/><path fill="#81CD39" d="M119.878 31.1164C124.797 28.3008 131.203 28.2883 136.117 31.1164C160.839 45.0855 185.569 59.0332 210.287 73.0108C214.937 75.6296 218.046 80.8038 217.999 86.1608V170.206C218.034 175.785 214.617 181.083 209.712 183.642C185.071 197.535 160.442 211.444 135.805 225.337C130.786 228.207 124.251 227.986 119.387 224.88C112 220.598 104.6 216.336 97.2121 212.058C95.7022 211.158 94.0004 210.442 92.9345 208.978C93.8766 207.708 95.5618 207.55 96.9309 206.995C100.014 206.014 102.847 204.44 105.679 202.913C106.396 202.423 107.27 202.611 107.957 203.049C114.274 206.671 120.536 210.399 126.874 213.986C128.226 214.767 129.595 213.73 130.751 213.086C154.931 199.419 179.141 185.805 203.318 172.134C204.214 171.703 204.709 170.752 204.636 169.771C204.653 142.046 204.64 114.317 204.645 86.5918C204.747 85.4785 204.103 84.455 203.096 83.999C178.541 70.1702 153.997 56.3205 129.446 42.4882C128.575 41.8893 127.426 41.8878 126.554 42.4837C102.002 56.3205 77.4638 70.1832 52.9124 84.011C51.9092 84.4675 51.236 85.4745 51.3554 86.5918C51.3596 114.317 51.3554 142.046 51.3554 169.775C51.2682 170.756 51.801 171.687 52.6906 172.109C59.2422 175.824 65.8024 179.513 72.3582 183.216C76.0516 185.203 80.5863 186.385 84.6555 184.862C88.2463 183.574 90.7633 179.909 90.6948 176.097C90.7288 148.534 90.6778 120.967 90.7203 93.4078C90.6309 92.1841 91.7912 91.1731 92.981 91.2885C96.1292 91.267 99.281 91.2461 102.429 91.297C103.743 91.267 104.647 92.5847 104.485 93.8174C104.472 121.555 104.519 149.293 104.464 177.03C104.472 184.423 101.435 192.467 94.5973 196.084C86.1737 200.447 75.7619 199.522 67.4399 195.338C60.2355 191.742 53.3603 187.498 46.2838 183.646C41.3661 181.101 37.966 175.782 38.0006 170.207V86.1608C37.949 80.6929 41.1825 75.4248 45.9764 72.8445C70.6133 58.9408 95.2461 45.0261 119.878 31.1164Z"/><path fill="#81CD39" d="M141.372 89.3351C152.117 88.6433 163.62 88.9255 173.289 94.2185C180.776 98.2754 184.926 106.789 185.058 115.106C184.849 116.227 183.676 116.846 182.605 116.769C179.488 116.765 176.369 116.812 173.252 116.748C171.929 116.799 171.161 115.58 170.995 114.411C170.099 110.431 167.928 106.49 164.183 104.57C158.433 101.692 151.767 101.837 145.497 101.897C140.92 102.139 135.998 102.536 132.12 105.227C129.143 107.266 128.239 111.382 129.301 114.697C130.303 117.077 133.05 117.845 135.299 118.553C148.248 121.94 161.97 121.602 174.672 126.059C179.931 127.876 185.075 131.409 186.875 136.915C189.23 144.295 188.198 153.115 182.947 159.039C178.689 163.914 172.488 166.568 166.303 168.009C158.075 169.844 149.536 169.891 141.18 169.076C133.323 168.18 125.146 166.116 119.081 160.763C113.894 156.259 111.361 149.241 111.612 142.469C111.672 141.325 112.811 140.527 113.907 140.621C117.046 140.596 120.186 140.587 123.325 140.626C124.58 140.536 125.509 141.62 125.574 142.802C126.152 146.593 127.577 150.573 130.884 152.82C137.264 156.937 145.271 156.655 152.577 156.77C158.63 156.502 165.425 156.421 170.364 152.42C172.97 150.138 173.742 146.32 173.038 143.036C172.275 140.263 169.374 138.971 166.883 138.126C154.1 134.083 140.224 135.55 127.565 130.977C122.425 129.161 117.455 125.727 115.481 120.447C112.726 112.974 113.988 103.73 119.789 98.0061C125.445 92.312 133.609 90.1192 141.372 89.3346V89.3351"/></svg>
        </g>
        
  </svg>
        </g>
        <g opacity="0">
          <animate attributeName="opacity" begin="3.6s" dur="0.4s" to="1" fill="freeze"/>
          <svg x="660" y="380" width="48" height="48" viewBox="0 0 256 256">
    
        <g transform="translate(0, 0)">
          <svg xmlns="http://www.w3.org/2000/svg" width="256" height="256" fill="none" viewBox="0 0 256 256"><rect width="256" height="256" fill="#007ACC" rx="60"/><path fill="#fff" d="M56.6112 128.849L56.5299 139.333H73.1902H89.8505L89.8505 186.673V234.012H101.635H113.419V186.673L113.419 139.333H130.079H146.739V129.052C146.739 123.363 146.618 118.609 146.455 118.487C146.333 118.325 126.056 118.243 101.472 118.284L56.7331 118.406L56.6112 128.849Z"/><path fill="#fff" d="M206.567 118.108C213.068 119.734 218.026 122.619 222.577 127.332C224.934 129.852 228.428 134.444 228.713 135.541C228.794 135.866 217.66 143.343 210.915 147.528C210.671 147.691 209.695 146.634 208.598 145.009C205.307 140.214 201.853 138.141 196.57 137.776C188.809 137.247 183.811 141.311 183.852 148.097C183.852 150.088 184.136 151.266 184.949 152.892C186.655 156.427 189.825 158.54 199.781 162.847C218.107 170.731 225.949 175.932 230.826 183.327C236.271 191.576 237.49 204.742 233.792 214.535C229.729 225.181 219.651 232.414 205.469 234.812C201.081 235.584 190.678 235.462 185.965 234.609C175.684 232.78 165.932 227.701 159.918 221.037C157.561 218.436 152.969 211.65 153.254 211.162C153.375 211 154.432 210.35 155.61 209.659C156.748 209.009 161.056 206.53 165.119 204.173L172.474 199.906L174.018 202.182C176.172 205.473 180.885 209.984 183.73 211.487C191.897 215.795 203.113 215.185 208.639 210.228C210.996 208.074 211.971 205.839 211.971 202.548C211.971 199.581 211.605 198.281 210.061 196.046C208.07 193.202 204.007 190.804 192.466 185.806C179.26 180.117 173.571 176.582 168.37 170.974C165.363 167.724 162.518 162.522 161.34 158.174C160.365 154.558 160.121 145.496 160.893 141.839C163.615 129.08 173.246 120.181 187.143 117.539C191.654 116.686 202.137 117.011 206.567 118.108Z"/></svg>
        </g>
        
  </svg>
        </g>
        <g opacity="0">
          <animate attributeName="opacity" begin="3.7s" dur="0.4s" to="1" fill="freeze"/>
          <svg x="720" y="380" width="48" height="48" viewBox="0 0 256 256">
    
        <g transform="translate(0, 0)">
          <svg xmlns="http://www.w3.org/2000/svg" width="256" height="256" fill="none" viewBox="0 0 256 256"><rect width="256" height="256" fill="#242938" rx="60"/><path fill="url(#paint0_linear_2_119)" fill-rule="evenodd" d="M83 110C88.9991 86.0009 104.001 74 128 74C164 74 168.5 101 186.5 105.5C198.501 108.501 209 104.001 218 92C212.001 115.999 196.999 128 173 128C137 128 132.5 101 114.5 96.5C102.499 93.4991 92 97.9991 83 110ZM38 164C43.9991 140.001 59.0009 128 83 128C119 128 123.5 155 141.5 159.5C153.501 162.501 164 158.001 173 146C167.001 169.999 151.999 182 128 182C92 182 87.5 155 69.5 150.5C57.4991 147.499 47 151.999 38 164Z" clip-rule="evenodd"/><defs><linearGradient id="paint0_linear_2_119" x1="86.5" x2="163.5" y1="74" y2="185.5" gradientUnits="userSpaceOnUse"><stop stop-color="#32B1C1"/><stop offset="1" stop-color="#14C6B7"/></linearGradient></defs></svg>
        </g>
        
  </svg>
        </g>

        <!-- row 2 -->
        <g opacity="0">
          <animate attributeName="opacity" begin="3.8s" dur="0.4s" to="1" fill="freeze"/>
          <svg x="480" y="440" width="48" height="48" viewBox="0 0 256 256">
    
        <g transform="translate(0, 0)">
          <svg xmlns="http://www.w3.org/2000/svg" width="256" height="256" fill="none" viewBox="0 0 256 256"><rect width="256" height="256" fill="#242938" rx="60"/><path fill="url(#paint0_linear_2_47)" d="M127.279 29C76.5066 29 79.6772 51.018 79.6772 51.018L79.7338 73.8284H128.185V80.6772H60.4893C60.4893 80.6772 28 76.9926 28 128.222C28 179.452 56.3573 177.636 56.3573 177.636H73.2812V153.863C73.2812 153.863 72.369 125.506 101.186 125.506H149.24C149.24 125.506 176.239 125.942 176.239 99.4123V55.5461C176.239 55.5461 180.338 29 127.279 29ZM100.563 44.339C105.384 44.339 109.28 48.2351 109.28 53.0556C109.28 57.8761 105.384 61.7723 100.563 61.7723C95.7426 61.7723 91.8465 57.8761 91.8465 53.0556C91.8465 48.2351 95.7426 44.339 100.563 44.339Z"/><path fill="url(#paint1_linear_2_47)" d="M128.721 227.958C179.493 227.958 176.323 205.941 176.323 205.941L176.266 183.13H127.815V176.281H195.511C195.511 176.281 228 179.966 228 128.736C228 77.5062 199.643 79.323 199.643 79.323H182.719V103.096C182.719 103.096 183.631 131.453 154.814 131.453H106.76C106.76 131.453 79.7607 131.016 79.7607 157.546V201.412C79.7607 201.412 75.6615 227.958 128.721 227.958ZM155.437 212.619C150.616 212.619 146.72 208.723 146.72 203.903C146.72 199.082 150.616 195.186 155.437 195.186C160.257 195.186 164.154 199.082 164.154 203.903C164.154 208.723 160.257 212.619 155.437 212.619Z"/><defs><linearGradient id="paint0_linear_2_47" x1="47.22" x2="146.333" y1="46.896" y2="145.02" gradientUnits="userSpaceOnUse"><stop stop-color="#387EB8"/><stop offset="1" stop-color="#366994"/></linearGradient><linearGradient id="paint1_linear_2_47" x1="108.056" x2="214.492" y1="109.905" y2="210.522" gradientUnits="userSpaceOnUse"><stop stop-color="#FFE052"/><stop offset="1" stop-color="#FFC331"/></linearGradient></defs></svg>
        </g>
        
  </svg>
        </g>
        <g opacity="0">
          <animate attributeName="opacity" begin="3.9s" dur="0.4s" to="1" fill="freeze"/>
          <svg x="540" y="440" width="48" height="48" viewBox="0 0 256 256">
    
        <g transform="translate(0, 0)">
          <svg xmlns="http://www.w3.org/2000/svg" width="256" height="256" fill="none" viewBox="0 0 256 256"><rect width="256" height="256" fill="#2396ED" rx="60"/><path fill="#fff" d="M141.187 122.123H161.904V103.379H141.187V122.123ZM116.525 122.123H137.241V103.379H116.525V122.123ZM92.3554 122.123H113.072V103.379H92.3554V122.123ZM68.1859 122.123H88.4093V103.379H68.1859V122.123ZM43.5233 122.123H64.2399V103.379H43.5233V122.123ZM68.1859 99.4333H88.4093V80.6896H68.1859V99.4333ZM92.3554 99.4333H113.072V80.6896H92.3554V99.4333ZM116.525 99.4333H137.241V80.6896H116.525V99.4333ZM116.525 76.7436H137.241V58H116.525V76.7436ZM228 113.738C228 113.738 219.121 105.352 200.871 108.312C198.898 94.0075 183.607 85.6222 183.607 85.6222C183.607 85.6222 169.303 102.886 179.661 122.123C176.702 123.603 171.769 125.576 164.37 125.576H28.7257C26.2594 134.948 26.2594 197.097 94.3284 197.097C143.16 197.097 179.661 174.408 196.925 132.974C222.574 134.948 228 113.738 228 113.738Z"/></svg>
        </g>
        
  </svg>
        </g>
        <g opacity="0">
          <animate attributeName="opacity" begin="4.0s" dur="0.4s" to="1" fill="freeze"/>
          <svg x="600" y="440" width="48" height="48" viewBox="0 0 256 256">
    
        <g transform="translate(0, 0)">
          <svg xmlns="http://www.w3.org/2000/svg" width="256" height="256" fill="none" viewBox="0 0 256 256"><rect width="256" height="256" fill="#242938" rx="60"/><path fill="#336791" d="M203.48 148.688C183.16 152.878 181.684 145.995 181.684 145.995C203.15 114.143 212.129 73.7134 204.38 63.8204C183.259 36.8204 146.689 49.5962 146.077 49.9266L145.88 49.9618C141.414 49.0656 136.873 48.5924 132.317 48.5485C123.12 48.4079 116.145 50.9602 110.844 54.9751C110.844 54.9751 45.6078 28.1016 48.6453 88.7743C49.2922 101.684 67.1375 186.509 88.4422 160.845C96.2891 151.409 103.812 143.484 103.812 143.484C107.539 145.966 112.018 147.232 116.708 146.775L117.073 146.466C116.966 147.681 117.016 148.905 117.221 150.108C111.737 156.239 113.354 157.315 102.385 159.572C91.2898 161.857 97.8148 165.928 102.062 166.997C107.223 168.291 119.162 170.119 127.234 158.827L126.91 160.113C129.062 161.836 130.566 171.314 130.313 179.906C130.06 188.499 129.891 194.391 131.579 199.003C133.266 203.616 134.954 213.98 149.368 210.956C161.413 208.376 167.649 201.675 168.528 190.524C169.147 182.592 170.539 183.759 170.638 176.672L171.763 173.311C173.049 162.553 171.973 159.087 179.391 160.704L181.198 160.866C186.662 161.112 193.813 159.987 198.003 158.039C207.038 153.849 212.396 146.845 203.487 148.688H203.48Z"/><path stroke="#fff" stroke-linecap="round" stroke-linejoin="round" stroke-width="5.034" d="M146.07 48.5961C143.82 49.2993 182.38 34.4985 204.303 62.504C212.038 72.3969 203.073 112.827 181.606 144.678M128.098 153.784C127.536 173.795 128.239 193.946 130.194 198.784C132.148 203.621 136.346 213.198 150.767 210.118C162.812 207.538 167.199 202.538 169.098 191.506L173.548 156.231L128.098 153.784ZM110.816 53.4688C110.816 53.4688 45.5375 26.7782 48.575 87.4508C49.2219 100.36 67.0672 185.185 88.3719 159.521C96.1484 150.148 103.18 142.815 103.18 142.815L110.816 53.4688Z"/><path stroke="#fff" stroke-linecap="round" stroke-linejoin="bevel" stroke-width="5.034" d="M181.613 144.664C181.613 144.664 183.02 151.555 203.41 147.35C212.319 145.508 206.954 152.511 197.926 156.702C190.515 160.147 173.893 161.026 173.619 156.28C172.916 144.01 182.366 147.737 181.684 144.664C181.065 141.894 176.832 139.18 174.048 132.402C171.608 126.495 140.579 81.1438 182.654 87.8727C184.201 87.5563 171.685 47.7946 132.31 47.2181C92.9352 46.6415 94.1797 95.6282 94.1797 95.6282"/><path stroke="#fff" stroke-linejoin="round" stroke-width="5.034" d="M117.08 148.869C111.596 155 113.213 156.076 102.245 158.333C91.1492 160.618 97.6742 164.689 101.921 165.758C107.082 167.052 119.021 168.88 127.093 157.58C129.554 154.135 127.079 148.651 123.704 147.259C122.073 146.584 119.893 145.74 117.095 148.876L117.08 148.869Z"/><path stroke="#fff" stroke-linecap="round" stroke-linejoin="round" stroke-width="5.034" d="M116.722 148.763C116.159 145.156 117.903 140.874 119.766 135.854C122.565 128.331 129.02 120.807 123.859 96.9219C120.013 79.1329 94.1867 93.2165 94.1867 95.6282C94.1867 98.0399 95.3539 107.863 93.7648 119.288C91.6766 134.209 103.257 146.823 116.588 145.536"/><path fill="#fff" stroke="#fff" stroke-width="1.68" d="M110.577 95.2695C110.457 96.0922 112.088 98.293 114.205 98.5883C116.321 98.8836 118.128 97.168 118.248 96.3383C118.367 95.5086 116.736 94.6086 114.62 94.3133C112.503 94.018 110.682 94.4539 110.577 95.2695V95.2695Z"/><path fill="#fff" stroke="#fff" stroke-width=".837" d="M175.011 93.5891C175.123 94.4118 173.499 96.6125 171.383 96.9079C169.266 97.2032 167.445 95.4875 167.34 94.6579C167.234 93.8282 168.852 92.9282 170.968 92.6329C173.084 92.3375 174.905 92.7735 175.011 93.5891Z"/><path stroke="#fff" stroke-linecap="round" stroke-linejoin="round" stroke-width="5.034" d="M182.577 87.8867C182.928 94.3555 181.184 98.75 180.959 105.634C180.636 115.632 185.727 127.079 178.055 138.54"/></svg>
        </g>
        
  </svg>
        </g>
        <g opacity="0">
          <animate attributeName="opacity" begin="4.1s" dur="0.4s" to="1" fill="freeze"/>
          <svg x="660" y="440" width="48" height="48" viewBox="0 0 256 256">
    
        <g transform="translate(0, 0)">
          <svg xmlns="http://www.w3.org/2000/svg" width="256" height="256" fill="none" viewBox="0 0 256 256"><rect width="256" height="256" fill="#242938" rx="60"/><path fill="#fff" d="M84.7447 111.961C84.7447 114.395 85.0079 116.368 85.4684 117.816C85.9947 119.263 86.6526 120.842 87.5737 122.553C87.9026 123.079 88.0342 123.605 88.0342 124.066C88.0342 124.724 87.6395 125.382 86.7842 126.039L82.6395 128.803C82.0474 129.197 81.4553 129.395 80.929 129.395C80.2711 129.395 79.6132 129.066 78.9553 128.474C78.0342 127.487 77.2447 126.434 76.5869 125.382C75.929 124.263 75.2711 123.013 74.5474 121.5C69.4158 127.553 62.9684 130.579 55.2053 130.579C49.679 130.579 45.2711 129 42.0474 125.842C38.8237 122.684 37.179 118.474 37.179 113.211C37.179 107.618 39.1526 103.079 43.1658 99.6579C47.179 96.2368 52.5079 94.5263 59.2842 94.5263C61.5211 94.5263 63.8237 94.7237 66.2579 95.0526C68.6921 95.3816 71.1921 95.9079 73.8237 96.5V91.6974C73.8237 86.6974 72.7711 83.2105 70.7316 81.1711C68.6263 79.1316 65.0737 78.1447 60.0079 78.1447C57.7053 78.1447 55.3368 78.4079 52.9026 79C50.4684 79.5921 48.1 80.3158 45.7974 81.2368C44.7447 81.6974 43.9553 81.9605 43.4947 82.0921C43.0342 82.2237 42.7053 82.2895 42.4421 82.2895C41.5211 82.2895 41.0605 81.6316 41.0605 80.25V77.0263C41.0605 75.9737 41.1921 75.1842 41.5211 74.7237C41.85 74.2632 42.4421 73.8026 43.3632 73.3421C45.6658 72.1579 48.429 71.1711 51.6526 70.3816C54.8763 69.5263 58.2974 69.1316 61.9158 69.1316C69.7447 69.1316 75.4684 70.9079 79.1526 74.4605C82.7711 78.0132 84.6132 83.4079 84.6132 90.6447V111.961H84.7447ZM58.0342 121.961C60.2053 121.961 62.4421 121.566 64.8105 120.776C67.179 119.987 69.2842 118.539 71.0605 116.566C72.1132 115.316 72.9026 113.934 73.2974 112.355C73.6921 110.776 73.9553 108.868 73.9553 106.632V103.868C72.0474 103.408 70.0079 103.013 67.9026 102.75C65.7974 102.487 63.7579 102.355 61.7184 102.355C57.3105 102.355 54.0868 103.211 51.9158 104.987C49.7447 106.763 48.6921 109.263 48.6921 112.553C48.6921 115.645 49.4816 117.947 51.1263 119.526C52.7053 121.171 55.0079 121.961 58.0342 121.961ZM110.863 129.066C109.679 129.066 108.889 128.868 108.363 128.408C107.837 128.013 107.376 127.092 106.982 125.842L91.5211 74.9868C91.1263 73.6711 90.929 72.8158 90.929 72.3553C90.929 71.3026 91.4553 70.7105 92.5079 70.7105H98.9553C100.205 70.7105 101.061 70.9079 101.521 71.3684C102.047 71.7632 102.442 72.6842 102.837 73.9342L113.889 117.487L124.153 73.9342C124.482 72.6184 124.876 71.7632 125.403 71.3684C125.929 70.9737 126.85 70.7105 128.034 70.7105H133.297C134.547 70.7105 135.403 70.9079 135.929 71.3684C136.455 71.7632 136.916 72.6842 137.179 73.9342L147.574 118.013L158.955 73.9342C159.35 72.6184 159.811 71.7632 160.271 71.3684C160.797 70.9737 161.653 70.7105 162.837 70.7105H168.955C170.008 70.7105 170.6 71.2368 170.6 72.3553C170.6 72.6842 170.534 73.0132 170.468 73.4079C170.403 73.8026 170.271 74.3289 170.008 75.0526L154.153 125.908C153.758 127.224 153.297 128.079 152.771 128.474C152.245 128.868 151.389 129.132 150.271 129.132H144.613C143.363 129.132 142.508 128.934 141.982 128.474C141.455 128.013 140.995 127.158 140.732 125.842L130.534 83.4079L120.403 125.776C120.074 127.092 119.679 127.947 119.153 128.408C118.626 128.868 117.705 129.066 116.521 129.066H110.863ZM195.403 130.842C191.982 130.842 188.561 130.447 185.271 129.658C181.982 128.868 179.416 128.013 177.705 127.026C176.653 126.434 175.929 125.776 175.666 125.184C175.403 124.592 175.271 123.934 175.271 123.342V119.987C175.271 118.605 175.797 117.947 176.784 117.947C177.179 117.947 177.574 118.013 177.968 118.145C178.363 118.276 178.955 118.539 179.613 118.803C181.85 119.789 184.284 120.579 186.85 121.105C189.482 121.632 192.047 121.895 194.679 121.895C198.824 121.895 202.047 121.171 204.284 119.724C206.521 118.276 207.705 116.171 207.705 113.474C207.705 111.632 207.113 110.118 205.929 108.868C204.745 107.618 202.508 106.5 199.284 105.447L189.745 102.487C184.942 100.974 181.389 98.7368 179.218 95.7763C177.047 92.8816 175.929 89.6579 175.929 86.2368C175.929 83.4737 176.521 81.0395 177.705 78.9342C178.889 76.8289 180.468 74.9868 182.442 73.5395C184.416 72.0263 186.653 70.9079 189.284 70.1184C191.916 69.3289 194.679 69 197.574 69C199.021 69 200.534 69.0658 201.982 69.2632C203.495 69.4605 204.876 69.7237 206.258 69.9868C207.574 70.3158 208.824 70.6447 210.008 71.0395C211.192 71.4342 212.113 71.8289 212.771 72.2237C213.692 72.75 214.35 73.2763 214.745 73.8684C215.139 74.3947 215.337 75.1184 215.337 76.0395V79.1316C215.337 80.5132 214.811 81.2368 213.824 81.2368C213.297 81.2368 212.442 80.9737 211.324 80.4474C207.574 78.7368 203.363 77.8816 198.692 77.8816C194.942 77.8816 191.982 78.4737 189.942 79.7237C187.903 80.9737 186.85 82.8816 186.85 85.5789C186.85 87.4211 187.508 89 188.824 90.25C190.139 91.5 192.574 92.75 196.061 93.8684L205.403 96.8289C210.139 98.3421 213.561 100.447 215.6 103.145C217.639 105.842 218.626 108.934 218.626 112.355C218.626 115.184 218.034 117.75 216.916 119.987C215.732 122.224 214.153 124.197 212.113 125.776C210.074 127.421 207.639 128.605 204.811 129.461C201.85 130.382 198.758 130.842 195.403 130.842Z"/><path fill="#F90" fill-rule="evenodd" d="M207.837 162.816C186.192 178.803 154.745 187.29 127.705 187.29C89.8105 187.29 55.6658 173.276 29.8763 149.987C27.8369 148.145 29.679 145.645 32.1132 147.092C60.0079 163.276 94.4158 173.079 130.008 173.079C154.021 173.079 180.403 168.079 204.679 157.816C208.297 156.171 211.389 160.184 207.837 162.816Z" clip-rule="evenodd"/><path fill="#F90" fill-rule="evenodd" d="M216.85 152.553C214.087 149 198.561 150.842 191.521 151.697C189.416 151.961 189.087 150.118 190.995 148.737C203.363 140.053 223.692 142.553 226.061 145.447C228.429 148.408 225.403 168.737 213.824 178.474C212.047 179.987 210.337 179.197 211.126 177.224C213.758 170.711 219.613 156.039 216.85 152.553Z" clip-rule="evenodd"/></svg>
        </g>
        
  </svg>
        </g>
        <g opacity="0">
          <animate attributeName="opacity" begin="4.2s" dur="0.4s" to="1" fill="freeze"/>
          <svg x="720" y="440" width="48" height="48" viewBox="0 0 256 256">
    
        <g transform="translate(0, 0)">
          <svg xmlns="http://www.w3.org/2000/svg" width="256" height="256" fill="none" viewBox="0 0 256 256"><rect width="256" height="256" fill="#F03C2E" rx="60"/><g clip-path="url(#clip0_7_283)"><path fill="#fff" d="M224.225 119.094L136.906 31.775C135.711 30.5787 134.291 29.6298 132.729 28.9824C131.166 28.3349 129.491 28.0017 127.8 28.0017C126.109 28.0017 124.434 28.3349 122.871 28.9824C121.309 29.6298 119.889 30.5787 118.694 31.775L100.569 49.9L123.569 72.9C128.919 71.025 135.044 72.3062 139.306 76.5687C141.335 78.6014 142.752 81.1638 143.394 83.9632C144.036 86.7626 143.878 89.6862 142.937 92.4L165.106 114.569C170.469 112.719 176.656 113.912 180.937 118.206C182.361 119.63 183.49 121.32 184.26 123.18C185.03 125.04 185.426 127.033 185.426 129.046C185.425 131.059 185.029 133.052 184.258 134.912C183.487 136.771 182.358 138.461 180.934 139.884C179.511 141.308 177.821 142.436 175.961 143.206C174.101 143.977 172.108 144.373 170.095 144.372C168.082 144.372 166.088 143.975 164.229 143.205C162.369 142.434 160.679 141.305 159.256 139.881C154.756 135.381 153.644 128.756 155.919 123.212L135.244 102.537V156.944C136.745 157.686 138.116 158.666 139.306 159.844C140.729 161.267 141.858 162.956 142.629 164.816C143.399 166.675 143.795 168.668 143.795 170.681C143.795 172.694 143.399 174.687 142.629 176.546C141.858 178.406 140.729 180.096 139.306 181.519C137.883 182.942 136.193 184.071 134.334 184.841C132.474 185.611 130.481 186.008 128.469 186.008C126.456 186.008 124.463 185.611 122.604 184.841C120.744 184.071 119.054 182.942 117.631 181.519C116.206 180.096 115.076 178.407 114.305 176.548C113.533 174.688 113.136 172.694 113.136 170.681C113.136 168.668 113.533 166.675 114.305 164.815C115.076 162.955 116.206 161.266 117.631 159.844C119.112 158.369 120.756 157.25 122.65 156.5V101.587C120.825 100.837 119.112 99.7312 117.631 98.2437C115.479 96.0943 114.016 93.3526 113.428 90.3684C112.841 87.3841 113.155 84.2924 114.331 81.4875L91.6437 58.8125L31.7687 118.625C30.5716 119.821 29.6219 121.241 28.9739 122.804C28.3259 124.367 27.9924 126.042 27.9924 127.734C27.9924 129.426 28.3259 131.102 28.9739 132.665C29.6219 134.228 30.5716 135.648 31.7687 136.844L119.094 224.156C120.289 225.352 121.709 226.301 123.271 226.949C124.834 227.596 126.509 227.929 128.2 227.929C129.891 227.929 131.566 227.596 133.129 226.949C134.691 226.301 136.111 225.352 137.306 224.156L224.225 137.375C225.422 136.179 226.372 134.759 227.02 133.196C227.668 131.633 228.001 129.958 228.001 128.266C228.001 126.574 227.668 124.898 227.02 123.335C226.372 121.772 225.422 120.352 224.225 119.156"/></g><defs><clipPath id="clip0_7_283"><rect width="200" height="200" fill="#fff" transform="translate(28 28)"/></clipPath></defs></svg>
        </g>
        
  </svg>
        </g>
      </g>

      <!-- social icons -->
      <g opacity="0" transform="translate(0, 22)">
        <animate attributeName="opacity" begin="4.5s" dur="0.6s" to="1" fill="freeze"/>
        <text x="480" y="490" font-size="12" letter-spacing="2" fill="#475569">CONNECT</text>

        <g filter="url(#pulseGlow)">
          <circle cx="492" cy="520" r="20" fill="#F8FAFC" stroke="url(#pillBorder)" stroke-width="1.2"/>
          <path d="M492 508c-6.6 0-12 5.4-12 12 0 5.3 3.4 9.8 8.2 11.4.6.1.8-.3.8-.6v-2.2c-3.3.7-4-1.6-4-1.6-.6-1.4-1.4-1.8-1.4-1.8-1.1-.8.1-.8.1-.8 1.2.1 1.9 1.3 1.9 1.3 1.1 1.9 2.9 1.3 3.6 1 .1-.8.4-1.3.8-1.6-2.6-.3-5.4-1.3-5.4-5.9 0-1.3.5-2.4 1.2-3.2-.1-.3-.5-1.5.1-3.2 0 0 1-.3 3.3 1.2a11 11 0 0 1 6 0c2.3-1.5 3.3-1.2 3.3-1.2.6 1.7.2 2.9.1 3.2.8.8 1.2 1.9 1.2 3.2 0 4.6-2.8 5.6-5.5 5.9.4.4.8 1.1.8 2.3v3.4c0 .3.2.7.8.6 4.8-1.6 8.2-6.1 8.2-11.4 0-6.6-5.4-12-12-12z" fill="#0F172A"/>
        </g>

        <g filter="url(#pulseGlow)">
          <circle cx="552" cy="520" r="20" fill="#F8FAFC" stroke="url(#pillBorder)" stroke-width="1.2"/>
          <path d="M545 513h4.6v2.4h.1c.6-1.1 2.2-2.4 4.6-2.4 4.9 0 5.8 3 5.8 7v8.1h-4.8v-7.2c0-1.7 0-4-2.5-4s-2.8 1.9-2.8 3.9v7.3H545V513zM539.8 513h4.8v15.1h-4.8V513zM542.2 506.6a2.8 2.8 0 1 1 0 5.6 2.8 2.8 0 0 1 0-5.6z" fill="#0F172A"/>
        </g>

        <g filter="url(#pulseGlow)">
          <circle cx="612" cy="520" r="20" fill="#F8FAFC" stroke="url(#pillBorder)" stroke-width="1.2"/>
          <path d="M601 512h22a2 2 0 0 1 2 2v12a2 2 0 0 1-2 2h-22a2 2 0 0 1-2-2v-12a2 2 0 0 1 2-2zm1 2.6v.1l10 7 10-7v-.1h-20zm20 2.4l-10 7-10-7v9h20v-9z" fill="#0F172A"/>
        </g>

        <g filter="url(#pulseGlow)">
          <circle cx="672" cy="520" r="20" fill="#F8FAFC" stroke="url(#pillBorder)" stroke-width="1.2"/>
          <path d="M662 528l7-16 3 7 7-11-3 20-6-8-8 8z" fill="none" stroke="#0F172A" stroke-width="1.6" stroke-linejoin="round" stroke-linecap="round"/>
        </g>
      </g>
    </g>
  </g>

  <!-- outer border shimmer -->
  <rect x="4" y="4" width="1172" height="602" rx="26" fill="none" stroke="url(#borderShimmer)" stroke-width="1.4"/>
  <rect x="4" y="4" width="1172" height="602" rx="26" fill="none" stroke="#0F172A" stroke-opacity="0.08" stroke-width="1"/>
</svg>
